<?xml version="1.0" encoding="utf-8"?>
<!-- Generator: Adobe Illustrator 23.0.4, SVG Export Plug-In . SVG Version: 6.00 Build 0)  -->
<svg version="1.1" id="Calque_1" xmlns="http://www.w3.org/2000/svg" xmlns:xlink="http://www.w3.org/1999/xlink" x="0px" y="0px"
	 viewBox="0 0 368.6 220.9" style="enable-background:new 0 0 368.6 220.9;" xml:space="preserve">
<style type="text/css">
	.st0{fill:#F8C800;}
	.st1{fill:#01766E;}
	.st2{fill:#1D1D1B;}
</style>
<rect x="86" y="60.6" class="st0" width="34.7" height="27"/>
<path class="st0" d="M9.3,96.2c0,0,84.1,16.3,183.2-3.1c10.7,5.5,15.7,8.9,15.7,8.9s-73.4,25.8-194.3,8.9
	C11.1,102.7,9.3,96.2,9.3,96.2z"/>
<path class="st0" d="M17,119.9c0,0,33.1,13.8,127.1,6.1c7.4,5.5,11,8.9,11,8.9s-86.5,12.9-134.4-3.7C18.5,124.8,17,119.9,17,119.9z"
	/>
<path class="st0" d="M22.8,143.5c0,0,15,8,80.4,7.7c4.9,4,8.3,6.4,8.3,6.4s-43,8.6-85.3-4.3C24.6,149.3,22.8,143.5,22.8,143.5z"/>
<path class="st1" d="M107.2,145c0,0,23.6,0.9,30.1-2.1c-4,17.5-12,49.4-12,49.4H27.1l9.8-32.2c0,0,39.6,15,90.2,0.6
	C113.9,149.9,107.2,145,107.2,145z"/>
<polygon class="st2" points="148.9,191.7 165.5,124.1 214,124.1 211.8,134 184.8,134 180.8,151.5 205.4,151.5 203.3,161.9 
	178.1,161.9 172.6,182.2 199.3,182.2 197.7,191.4 "/>
<path class="st2" d="M213.7,190.4l16.9-66c0,0,30.7,0,39.3,0c8.6,0,22.1,5.2,22.1,16.6c0,11.4-9.5,18.4-23.3,22.1
	c5.2,13.5,10.7,27,10.7,27H256l-9.5-31.6c0,0,10.4,0,13.5,0c3.1,0,11.4-6.1,10.4-16.9c-0.9-10.7-20.9-8-20.9-8
	c-4.3,17.5-15,57.1-15,57.1L213.7,190.4z"/>
<polygon class="st2" points="305.8,190.7 320.5,133.7 298.7,133.7 301.8,124.1 363.5,124.1 361.3,134.3 342.3,134.3 327.6,190.4 "/>
<g>
	<path class="st2" d="M24.9,200.1l0.6-3.1h12.3l-0.6,3.1h-4.4l-2.3,12.5h-3.5l2.3-12.5H24.9z"/>
	<path class="st2" d="M49.3,212.6l2.9-15.6h9.9l-0.6,3h-6.4l-0.6,3.2H60l-0.6,3H54l-0.6,3.3H60l-0.6,3H49.3z"/>
	<path class="st2" d="M77.6,199.6c1.7-1.8,4.3-2.9,7.1-2.9c4.3,0,6.6,2.7,6.6,6.1h-3.8c-0.1-1.6-1.5-2.7-3.4-2.7
		c-2.9-0.1-5.6,2.7-5.5,5.7c0,2.2,1.4,3.7,3.8,3.7c2,0,3.8-1.1,4.5-2.6h3.9c-1,3.4-4.4,6-9,6c-4.3,0-6.9-2.7-6.9-6.5
		C74.9,203.9,75.9,201.4,77.6,199.6z"/>
	<path class="st2" d="M104.6,212.6l2.9-15.6h3.5l-1.1,6h6.2l1.1-6h3.5l-2.9,15.6h-3.5l1.2-6.2h-6.2l-1.1,6.2H104.6z"/>
	<path class="st2" d="M133.3,212.6l2.9-15.6h3.7l4.3,9.8h0.1l1.8-9.8h3.4l-2.9,15.6H143l-4.3-9.8h-0.1l-1.8,9.8H133.3z"/>
	<path class="st2" d="M172.7,196.7c2.1,0,3.8,0.6,5,1.8c1.3,1.2,1.9,2.8,1.9,4.7c0,5.3-4.3,9.7-9.9,9.7c-2.1,0-3.8-0.6-5.1-1.8
		c-1.2-1.2-1.9-2.8-1.9-4.7C162.8,201.1,167,196.7,172.7,196.7z M170.3,209.5c2.9,0.1,5.6-2.6,5.6-5.7c0-2.2-1.5-3.7-3.8-3.7
		c-3-0.1-5.7,2.6-5.6,5.7C166.5,208,168,209.5,170.3,209.5z"/>
	<path class="st2" d="M192.8,212.6l2.9-15.6h3.5l-2.3,12.5h6.1l-0.6,3.1H192.8z"/>
	<path class="st2" d="M226,196.7c2.1,0,3.8,0.6,5,1.8c1.3,1.2,1.9,2.8,1.9,4.7c0,5.3-4.3,9.7-9.9,9.7c-2.1,0-3.8-0.6-5.1-1.8
		c-1.2-1.2-1.9-2.8-1.9-4.7C216,201.1,220.3,196.7,226,196.7z M223.6,209.5c2.9,0.1,5.6-2.6,5.6-5.7c0-2.2-1.5-3.7-3.8-3.7
		c-3-0.1-5.7,2.6-5.6,5.7C219.7,208,221.3,209.5,223.6,209.5z"/>
	<path class="st2" d="M256.6,196.7c4.1,0,6.5,2.5,6.7,5.7h-3.9c-0.3-1.4-1.5-2.3-3.4-2.3c-3-0.1-5.6,2.7-5.5,5.8
		c0,2.2,1.4,3.7,3.8,3.7c1.1,0,2-0.2,2.9-0.8c0.9-0.5,1.4-1.1,1.7-1.8h-4.2l0.5-2.9h8.2c-0.5,5.5-4.4,8.8-9.6,8.8
		c-2.1,0-3.8-0.6-5-1.8c-1.3-1.2-1.9-2.7-1.9-4.7C246.7,201.2,250.9,196.7,256.6,196.7z"/>
	<path class="st2" d="M276.2,212.6l2.9-15.6h3.5l-2.9,15.6H276.2z"/>
	<path class="st2" d="M295.2,212.6l2.9-15.6h9.9l-0.6,3h-6.4l-0.6,3.2h5.4l-0.6,3h-5.4l-0.6,3.3h6.6l-0.6,3H295.2z"/>
	<path class="st2" d="M323.5,207.6c0,0.1,0,0.3,0,0.4c0,0.5,0.2,0.9,0.5,1.2c0.4,0.4,1.1,0.6,1.9,0.6c1.6,0,2.7-0.7,2.7-1.8
		c0-2.2-7-0.7-7-5.6c0-1.7,0.6-3,1.8-4c1.2-1,2.8-1.5,4.7-1.5c2.2,0,3.8,0.7,4.6,2.2c0.3,0.5,0.4,1.2,0.4,1.8c0,0.3,0,0.6-0.1,0.9
		h-3.5c0-0.1,0-0.2,0-0.3c0-0.4-0.1-0.7-0.4-1c-0.4-0.3-0.9-0.5-1.6-0.5c-1.4,0-2.4,0.7-2.4,1.7c0,2.2,7.2,0.7,7.2,5.4
		c0,3.7-2.6,5.9-7.1,5.9c-1.9,0-3.3-0.5-4.2-1.5c-0.7-0.8-1.1-1.7-1.1-2.8c0-0.4,0-0.7,0.1-1.1H323.5z"/>
</g>
<path class="st1" d="M74.4,7.8c0,0-12,44.5-22.7,88.4c75.8,1.5,98.8-4,98.8-4L171,7.8H74.4z M104.1,87.6c-6.3,0-11.4-5.1-11.4-11.4
	c0-6.3,5.1-11.4,11.4-11.4c6.3,0,11.4,5.1,11.4,11.4C115.5,82.5,110.4,87.6,104.1,87.6z"/>
</svg>
